<svg id="Layer_1" data-name="Layer 1" xmlns="http://www.w3.org/2000/svg" xmlns:xlink="http://www.w3.org/1999/xlink" viewBox="0 0 1149 721"><defs><style>.cls-1,.cls-52{fill:#fff;}.cls-2{fill:url(#linear-gradient);}.cls-3,.cls-43,.cls-44{fill:#b3aad3;}.cls-4{fill:#51c0b1;}.cls-5{fill:#f17fb1;}.cls-6{fill:#f0593b;}.cls-7{fill:url(#linear-gradient-2);}.cls-8{fill:url(#linear-gradient-3);}.cls-9{fill:url(#linear-gradient-4);}.cls-10{fill:url(#linear-gradient-5);}.cls-11{fill:url(#linear-gradient-6);}.cls-12{fill:#7cd0e8;}.cls-13{fill:#f9c1b9;}.cls-14{fill:#f16953;}.cls-15{fill:#f79828;}.cls-16{fill:#ffcc73;}.cls-17{fill:#ffcb73;}.cls-18{fill:#b4aad3;}.cls-19{fill:#f0593a;}.cls-20{fill:#f06952;}.cls-21{fill:#2b2b2b;}.cls-22{fill:#fbd7d6;}.cls-23{fill:#f17fb0;}.cls-24{fill:#f0678f;}.cls-25{fill:#c2b9db;}.cls-26{fill:#fab21b;}.cls-27{fill:#b2aad3;}.cls-28{fill:#fbb21a;}.cls-29{fill:#ec9796;}.cls-30{fill:#f4aea6;}.cls-31{fill:#4a4793;}.cls-32{fill:#0ab0be;}.cls-33{fill:#54c7e3;}.cls-34{fill:#7acfe7;}.cls-35{fill:#8c4b5d;}.cls-36{fill:#673542;}.cls-37{fill:#9ae3f4;}.cls-38{fill:none;}.cls-39{fill:#635ba7;}.cls-40{fill:#4fc1b2;}.cls-41{fill:#55c7e4;}.cls-42{fill:#f7f7f7;}.cls-43{font-size:50.91px;}.cls-43,.cls-44{font-family:ActionMan;}.cls-44{font-size:40.52px;}.cls-45{fill:#ebe9f4;}.cls-46{fill:#635ba8;}.cls-47{fill:url(#linear-gradient-7);}.cls-48{fill:url(#linear-gradient-8);}.cls-49{fill:url(#linear-gradient-9);}.cls-50,.cls-51,.cls-52,.cls-53{opacity:0.4;}.cls-50{fill:url(#linear-gradient-10);}.cls-51{fill:url(#linear-gradient-11);}.cls-53{fill:url(#linear-gradient-12);}.cls-54{fill:#e3e3e8;}.cls-55{fill:#42b29f;}.cls-56{fill:#582938;}.cls-57{fill:#421c2a;}.cls-58{fill:#ed9996;}.cls-59{fill:#f27fb2;}.cls-60{fill:#8e4f4f;}.cls-61{fill:#3d1926;}.cls-62{fill:#f4b2ab;}.cls-63{fill:#111;}</style><linearGradient id="linear-gradient" x1="793.87" y1="542.7" x2="793.87" y2="-62.21" gradientUnits="userSpaceOnUse"><stop offset="0" stop-color="#f79828"/><stop offset="0.99" stop-color="#f17fb0"/></linearGradient><linearGradient id="linear-gradient-2" x1="977.9" y1="561.64" x2="977.9" y2="610.44" gradientTransform="translate(-28.94 169.48) rotate(-32.03)" gradientUnits="userSpaceOnUse"><stop offset="0" stop-color="#f79828"/><stop offset="1" stop-color="#f0593a"/></linearGradient><linearGradient id="linear-gradient-3" x1="1040.58" y1="26.01" x2="1040.58" y2="74.82" gradientTransform="matrix(0.92, 0.39, -0.39, 0.92, 47.33, -95.43)" gradientUnits="userSpaceOnUse"><stop offset="0" stop-color="#51c0b1"/><stop offset="0.99" stop-color="#7acfe7"/></linearGradient><linearGradient id="linear-gradient-4" x1="522.92" y1="-59.44" x2="522.92" y2="-10.64" gradientTransform="matrix(1, -0.04, 0.04, 1, -49.93, 135.43)" xlink:href="#linear-gradient-3"/><linearGradient id="linear-gradient-5" x1="752.64" y1="88.84" x2="752.64" y2="137.64" gradientTransform="matrix(0.93, -0.36, 0.36, 0.93, -74.64, 409.07)" xlink:href="#linear-gradient"/><linearGradient id="linear-gradient-6" x1="955.8" y1="-74.13" x2="955.8" y2="-25.33" gradientTransform="translate(-30.72 -52.99) rotate(12.95)" xlink:href="#linear-gradient"/><linearGradient id="linear-gradient-7" x1="745.95" y1="41.53" x2="766.71" y2="41.53" gradientTransform="translate(185.04 -271.41) rotate(36.09)" xlink:href="#linear-gradient-3"/><linearGradient id="linear-gradient-8" x1="723.14" y1="73.83" x2="741.54" y2="73.83" gradientTransform="translate(185.04 -271.41) rotate(36.09)" xlink:href="#linear-gradient-3"/><linearGradient id="linear-gradient-9" x1="950.16" y1="68.85" x2="968.56" y2="68.85" gradientTransform="matrix(-0.84, -0.55, -0.55, 0.84, 1611.69, 711.36)" xlink:href="#linear-gradient-3"/><linearGradient id="linear-gradient-10" x1="719.62" y1="79.95" x2="737.27" y2="79.95" gradientTransform="matrix(0.98, 0.2, -0.2, 0.98, 61.09, -123.85)" xlink:href="#linear-gradient-3"/><linearGradient id="linear-gradient-11" x1="730.69" y1="85.46" x2="748.61" y2="85.46" gradientTransform="matrix(0.98, 0.2, -0.2, 0.98, 61.09, -123.85)" xlink:href="#linear-gradient-3"/><linearGradient id="linear-gradient-12" x1="750.77" y1="86.52" x2="764.82" y2="86.52" gradientTransform="matrix(0.98, 0.2, -0.2, 0.98, 61.09, -123.85)" xlink:href="#linear-gradient-3"/></defs><title>back2</title><path class="cls-1" d="M1149,273c-13,.55-32.33,3.49-47.75,16.86-11,9.54-22.22,15-32.85,68.11-4.86,24.33-17,51.09-40.13,62-21.9,9.74-35.28,2.44-54.74-3.64-43.79-12.17-68.12,14.59-82.71,52.3-8.6,22.2-20.7,29.21-24.56,32-21.27,15.42-51.74,16.72-74.91,8-7.25-2.72-10.66-5.25-17.27-9.09-16.69-9.72-42.12-21.05-79.5-26.91-24.33-4.86-51.9,1.62-74.6-8.11C540.51,432.17,585.92,360.69,545.37,312,522.67,282.84,504.83,283,474,276.47c-32.44-8.1-45.42-34.05-48.66-64.87-4.86-50.27,27.57-102.17-37.3-124.88-27.57-11.35-60-8.1-68.12-43.79a46.5,46.5,0,0,1-.89-12.76c.42-4.72,1.61-6.59,2.5-13.19.38-2.87,1-7.71.62-9.41-3.83-16.21-85.89-2-85.89-2a823.65,823.65,0,0,1-91.82,7.87A825.54,825.54,0,0,1,0,5V674a761.82,761.82,0,0,1,193.69-30.19c138.56-3.34,241.7,33.28,272.68,43.18,113,36.1,311.1,58.74,682.63-13Z"/><path class="cls-2" d="M794.25,542.7s-.21-18-.56-47.86l-.19-.07Z"/><path class="cls-3" d="M986.16,271.73l-14.25-10.68,2.18,17.43-10.68,14.25,17.43-2.17,14.24,10.68-2.16-17.44,10.68-14.24Z"/><path class="cls-4" d="M822.12,255.35,805,250.51l8.3,15.48-4.85,17.14,15.49-8.3,17.13,4.85-8.29-15.49,4.84-17.13Z"/><path class="cls-5" d="M677.42,410.52,665,401.21l1.89,15.19-9.3,12.41,15.18-1.89,12.41,9.31L683.3,421l9.31-12.41Z"/><path class="cls-3" d="M1116.81,204.39l-12.41-9.31,1.89,15.19-9.3,12.41,15.18-1.89,12.41,9.31-1.89-15.19L1132,202.5Z"/><path class="cls-3" d="M490.24,14.94,486,0,478.3,13.28l-14.91,4.27,13.25,7.66,4.27,14.92,7.67-13.25,14.91-4.28Z"/><path class="cls-6" d="M537.78,226l-8-13.29-3.95,14.79-13.3,8,14.79,4,8,13.29,4-14.79,13.29-8Z"/><path class="cls-7" d="M1098.8,145.73s-6.76-15-3.3-17.14,15,4.51,15,4.51,13.84-8.41,16.69-5.71-2.41,14.73-2.41,14.73,16.16,7,15.14,10.48-18.75,4.86-18.75,4.86-3.65,16-7.82,17.43c-2.55.88-7.81-15.63-7.81-15.63s-15,3.79-16.45.17S1098.8,145.73,1098.8,145.73Z"/><path class="cls-8" d="M980.33,346.06s8.44-14.16,12.14-12.54,4.92,14.91,4.92,14.91,14.83,6.5,14.26,10.39-13.45,6.48-13.45,6.48,3.56,17.22.1,18.41-14.74-12.58-14.74-12.58-15.2,6.2-18.77,3.6c-2.18-1.59,8.33-15.37,8.33-15.37S961.4,349.24,963.55,346,980.33,346.06,980.33,346.06Z"/><path class="cls-9" d="M461.75,72.73s1.61-16.41,5.66-16.51,10.79,11.4,10.79,11.4,16.19-.42,17.32,3.35-9.42,11.58-9.42,11.58S496.65,96.62,494,99.17s-18.68-5.12-18.68-5.12-11.13,12.07-15.46,11.23c-2.66-.51,1-17.45,1-17.45s-14.92-4.18-14.35-8S461.75,72.73,461.75,72.73Z"/><path class="cls-10" d="M656.22,237s-3.85-16-.06-17.46,13.93,7.24,13.93,7.24,15.16-5.69,17.46-2.51-5.11,14-5.11,14,14.58,9.85,12.93,13.11S676,252.68,676,252.68s-6.56,15.05-10.93,15.68c-2.67.39-4.77-16.82-4.77-16.82s-15.46.94-16.19-2.9S656.22,237,656.22,237Z"/><path class="cls-11" d="M904.72,102.68s5.84-15.42,9.77-14.46S921.94,102,921.94,102s15.73,3.82,15.84,7.75-12.12,8.72-12.12,8.72,6.51,16.34,3.31,18.11-16.7-9.82-16.7-9.82-13.89,8.76-17.85,6.81C892,132.43,899.94,117,899.94,117s-13.31-7.93-11.76-11.51S904.72,102.68,904.72,102.68Z"/><path class="cls-3" d="M725.58,303.37a9.44,9.44,0,1,1-10.82-7.84A9.46,9.46,0,0,1,725.58,303.37Z"/><path class="cls-3" d="M869.38,131.62a9.44,9.44,0,1,1-10.82-7.83A9.45,9.45,0,0,1,869.38,131.62Z"/><path class="cls-12" d="M436.83,39.32A9.44,9.44,0,1,1,426,31.48,9.44,9.44,0,0,1,436.83,39.32Z"/><path class="cls-13" d="M926,373.17a6.57,6.57,0,1,1-7.53-5.44A6.57,6.57,0,0,1,926,373.17Z"/><path class="cls-13" d="M978.7,110.75a6.57,6.57,0,1,1-7.53-5.45A6.56,6.56,0,0,1,978.7,110.75Z"/><path class="cls-14" d="M711,356.58a6.57,6.57,0,1,1-7.52-5.45A6.55,6.55,0,0,1,711,356.58Z"/><path class="cls-14" d="M842.43,94.92a6.57,6.57,0,1,1-7.52-5.45A6.56,6.56,0,0,1,842.43,94.92Z"/><path class="cls-15" d="M473.27,134.54a6.57,6.57,0,1,1-7.52-5.45A6.55,6.55,0,0,1,473.27,134.54Z"/><path class="cls-15" d="M373.05,19a6.57,6.57,0,1,1-7.52-5.45A6.57,6.57,0,0,1,373.05,19Z"/><path class="cls-16" d="M1053.61,314.61a11.57,11.57,0,1,1-13.25-9.6A11.55,11.55,0,0,1,1053.61,314.61Z"/><path class="cls-17" d="M913,294.72a5.88,5.88,0,1,1-8-2.15A5.88,5.88,0,0,1,913,294.72Z"/><path class="cls-1" d="M900.41,288.59c-6,6.89-29.19,27.51-18.53,38.36,7.62,7.77,24.17-11.23,28.55-15.77a166.93,166.93,0,0,0,17.66-21.85c3.46-5.09,8.78-12.15,7.93-18.64-.63-4.83-7.12-3.11-10-2.09-10.07,3.58-18.72,12.16-25.64,20-.85,1,.68,2.23,1.52,1.27a88.29,88.29,0,0,1,18.93-16.42,27.73,27.73,0,0,1,9.4-4c6.75-1.32,2.55,7.76,1.39,10.11-5.56,11.22-14.21,21.29-22.74,30.34-3.59,3.82-18.58,20.82-25.3,16-6.89-4.94,3-18.15,6.09-22.17,3.76-4.89,8.18-9.24,12.23-13.88C902.78,288.9,901.26,287.62,900.41,288.59Z"/><path class="cls-1" d="M912.53,287.05c-9-1.85-38.34-11.79-42.52,2.84-3,10.46,21.71,15.47,27.83,17a167.73,167.73,0,0,0,27.71,4.56c6.14.5,14.9,1.63,20.13-2.32,3.88-2.93-.82-7.73-3.11-9.7-8.09-7-19.82-10.26-30-12.41-1.25-.27-1.61,1.68-.36,1.95a88,88,0,0,1,23.63,8.34,27.79,27.79,0,0,1,8.11,6.21c4.48,5.21-5.48,6-8.1,6.19-12.5.72-25.54-1.83-37.62-4.77-5.09-1.24-27.27-5.87-26.41-14.09.89-8.43,17.26-6.36,22.28-5.66,6.11.85,12.07,2.54,18.11,3.78A1,1,0,0,0,912.53,287.05Z"/><path class="cls-1" d="M919.8,296.43c-3.11-8.62-9.93-38.86-24.59-34.79-10.49,2.9-1.89,26.59,0,32.62a167.37,167.37,0,0,0,10.57,26c2.77,5.49,6.37,13.56,12.47,16,4.53,1.79,6.17-4.72,6.66-7.71,1.73-10.54-1.58-22.27-5.08-32.11-.43-1.2-2.28-.49-1.85.72a88.35,88.35,0,0,1,5.21,24.51,28.11,28.11,0,0,1-1.07,10.16c-2.12,6.54-8-1.53-9.52-3.69-7.12-10.29-11.74-22.74-15.53-34.58-1.61-5-9.22-26.33-1.76-29.88,7.66-3.65,14.43,11.41,16.45,16.05,2.46,5.67,4.13,11.63,6.22,17.43C918.38,298.36,920.23,297.64,919.8,296.43Z"/><path class="cls-18" d="M932.43,309.88a2.86,2.86,0,1,1-3.91-1.05A2.87,2.87,0,0,1,932.43,309.88Z"/><path class="cls-18" d="M892.09,325.18a2.86,2.86,0,1,1-3.9-1A2.85,2.85,0,0,1,892.09,325.18Z"/><path class="cls-18" d="M894.11,268.5a2.86,2.86,0,1,1-3.91-1.05A2.85,2.85,0,0,1,894.11,268.5Z"/><path class="cls-19" d="M658.44,145.27a40.11,40.11,0,0,0,16.18,38.19c17.89,13,42.8,9.25,55.66-8.41l.56-.81C704.89,178.7,677.48,165.14,658.44,145.27Z"/><path class="cls-20" d="M721.17,119.51c-17.88-13-42.8-9.26-55.65,8.4a38.93,38.93,0,0,0-7.08,17.36c19,19.87,46.45,33.43,72.4,29A39.81,39.81,0,0,0,721.17,119.51Z"/><path class="cls-1" d="M685,163.42a18.64,18.64,0,0,0-3.82-1.75c.84-2.3,1.79-4.56,2.8-6.78a111.25,111.25,0,0,0,11,5.1c12.28,4.91,27.24,9,40.39,5.42.07-.19.15-.39.21-.58-13.08,3.1-27.13-.64-39.37-5.33A96.57,96.57,0,0,1,684.38,154c.9-1.93,1.84-3.82,2.79-5.66.43-.83.88-1.64,1.34-2.46,6.84,4.2,15.52,4.13,23.29,2.19,8.8-2.2,15.4-8.16,21.45-14.56-.17-.33-.34-.66-.52-1-5.52,5.79-11.37,11.09-19.18,13.81s-17.31,2.86-24.46-1.49A95.43,95.43,0,0,1,701.34,128c3.7-4,8.36-9.21,13.53-12.28-.34-.17-.7-.34-1-.49-3.74,2.47-6.92,5.92-10.1,9a87.41,87.41,0,0,0-15.38,20.18,21.39,21.39,0,0,1-3-2.47c-8.67-8.65-3.75-19.28,1.32-28.68-.38.11-.77.22-1.16.35-5.4,9.85-9.84,20.92-.23,29.85a21.27,21.27,0,0,0,2.52,2l-.5.88c-1.26,2.33-2.5,4.76-3.67,7.27a92.23,92.23,0,0,1-9.77-6.29c-4.26-3.17-9.43-6.83-12.8-11.35-.16.36-.3.72-.44,1.09,2.94,3.6,6.94,6.45,10.47,9.33a80.32,80.32,0,0,0,12.13,8.1c-1,2.27-2,4.59-2.88,7-6.87-1.86-13.94.63-19,5.48.19.44.38.87.59,1.3a27.71,27.71,0,0,1,4.26-3.51,16,16,0,0,1,13.59-1.81c-2.47,7.18-3.87,14.7-3,22l.6.37c-.69-7.47.76-15,3.25-22.13a22.64,22.64,0,0,1,6.6,3.58c7.33,5.69,11.38,15,13.48,24.39.52,0,1-.07,1.55-.12C699.94,179.91,694.24,168.92,685,163.42Z"/><path class="cls-21" d="M1005.61,202.94c-.32-3.1-5.14-4.42-9.23-5a31.35,31.35,0,0,0,5.44,13C1004,208.45,1005.87,205.46,1005.61,202.94Z"/><path class="cls-22" d="M983.21,205l7,11.06,6.35,0a43.81,43.81,0,0,0,5.3-5.13,31.35,31.35,0,0,1-5.44-13,47.39,47.39,0,0,0-5.81-.41Z"/><path class="cls-23" d="M911.8,227.5c0,2.29,2.08,7.66,4,11.64s4.93,2.06,4.93,2.06l5.1-2.33-1.44-4.53a72.47,72.47,0,0,0-12.33-8.68A6.07,6.07,0,0,0,911.8,227.5Z"/><path class="cls-24" d="M914.77,222.89a4.36,4.36,0,0,0-2.72,2.77,72.47,72.47,0,0,1,12.33,8.68l-4.33-13.6S916.88,222,914.77,222.89Z"/><path class="cls-25" d="M925.78,219.55a78.93,78.93,0,0,0,5.14,17,2.26,2.26,0,0,1-1.39,2.66c-1.85.63-2.9,1.52-3.71-.33s-5.91-15.82-5.77-18.13C920.13,219.41,925.49,218,925.78,219.55Z"/><path class="cls-17" d="M990.41,198.77c.78-.93.16-1.2.16-1.2l-64.79,22a21.47,21.47,0,0,0,.62,3.9l61-20.79C987,201.12,989.66,199.65,990.41,198.77Z"/><path class="cls-15" d="M996.27,214.55c-.86-1-4.25-.58-5-2l-61.55,21c.7,1.79,1.2,3,1.2,3l65.6-20.48S997.2,215.6,996.27,214.55Z"/><path class="cls-26" d="M991.13,212.2c-.28-1.85,3.11-4.39,2.43-6.51s-6-2.75-6-2.75a1,1,0,0,1-.11-.28l-61,20.79a85.12,85.12,0,0,0,3.32,10.11l61.55-21A1.5,1.5,0,0,1,991.13,212.2Z"/><path class="cls-26" d="M619.58,229.53a124.61,124.61,0,0,0-16.53-15.39C591,205,585,186.51,585.92,169.05a32.15,32.15,0,0,0-7.39,7.73c-8.84,12.85-4.94,27.95-2.45,40.53a48.42,48.42,0,0,1-1.2,23.3l15.62,5.17L606.12,251a47,47,0,0,1,11.78-19.78Z"/><path class="cls-17" d="M603.05,214.14a124.61,124.61,0,0,1,16.53,15.39c8.62-8.41,18.7-18.14,18.52-33s-9-26.1-23.46-30.88c-10.71-3.56-20.81-2.4-28.72,3.41C585,186.51,591,205,603.05,214.14Z"/><path class="cls-12" d="M582.19,244.22c3.66-8.77,6.56-17.71,7.71-27.25.6-5.07,1.6-13.72-1.87-18.29-3.84-5.05-9,1.37-8.11,5.7,1.46,7.37,9.19,8.32,15.47,6.87,7.19-1.66,12.73-8.08,14.94-14.75,2-6.09-3-13.37-9-8.05-5.31,4.65-1.18,15.82,2,20.93,3.64,5.83,11.38,9.43,16.81,4.27,2.31-2.2,2.9-8.58-1.4-9.61-6.22-1.49-10.18,5.9-12.43,10.21-5.33,10.15-9.66,23.39-7.8,35.19.26,1.68,2.81,1.17,2.57-.47-1.69-12.26,3.11-25.86,9-36.15a20.84,20.84,0,0,1,3.63-4.72c1.75-1.66,5.3-2.61,5.52.86.37,5.87-7.57,5.34-11,2.89s-5.16-6.6-6.18-10.34a30,30,0,0,1-1.09-6.29,10,10,0,0,1,.36-3c.67-2.89,5.3-6,7-.8,1.31,4-1.87,8.43-4.09,11.3a17.63,17.63,0,0,1-9.42,6.54c-3.54,1-9.85,1.37-12.18-2.45a7.41,7.41,0,0,1-.67-5.7q1.2-2.91,4.12-1.66a6.1,6.1,0,0,1,1.24,2.71c1.69,5.66.93,12.22.2,17.83-1.06,8.23-3.69,16.15-6.46,23.87-.24.65.78,1,1,.35Z"/><path class="cls-27" d="M581.73,242.5a56.67,56.67,0,0,1-6.53-2.91l-2,6.53c-5.88,18,1.63,20.47,1.63,20.47a61.3,61.3,0,0,0,10.36,4.2A59.66,59.66,0,0,1,581.73,242.5Z"/><path class="cls-25" d="M606.42,249.94a189.39,189.39,0,0,1-24.69-7.44,59.66,59.66,0,0,0,3.49,28.29,53,53,0,0,0,7.36,1.69C601.43,273.82,606.42,249.94,606.42,249.94Z"/><path class="cls-1" d="M575.31,245.63c4.41,2.53,21.64,8,28.06,8.81"/><path class="cls-1" d="M575.12,245.94c4.13,2.66,9.22,4,13.84,5.5,4.25,1.36,10,3.81,14.51,3.41.45,0,.39-.66,0-.8-4.47-1.71-9.58-2.36-14.17-3.79a117.93,117.93,0,0,1-13.9-5c-.4-.18-.66.43-.3.66Z"/><path class="cls-1" d="M573.34,252.32c4.4,2.53,21.64,8,28,8.82"/><path class="cls-1" d="M573.14,252.63c4.13,2.66,9.22,4,13.84,5.5,4.26,1.36,10,3.81,14.51,3.41.45,0,.4-.66,0-.8-4.46-1.71-9.58-2.35-14.17-3.78a120.47,120.47,0,0,1-13.9-5c-.4-.18-.65.43-.3.66Z"/><path class="cls-1" d="M572.69,258.86c4,2.34,19.92,7.49,25.8,8.28"/><path class="cls-1" d="M572.5,259.14c3.82,2.46,8.5,3.76,12.75,5.13,3.92,1.28,9.23,3.56,13.34,3.25.41,0,.35-.6,0-.74-4.11-1.59-8.81-2.23-13-3.57a112.36,112.36,0,0,1-12.79-4.66c-.38-.17-.6.38-.28.59Z"/><path class="cls-5" d="M1081.76,252.63c-3.94-15.92-14.94-41.63-14.94-41.63l3.61-19.86s8.58,2,9.81-2.32c1.11-3.89-4.43-4.89-4.43-4.89l-29-6.26c-4.49-1-8.45-2-9.42,2.48-1.14,5.31,9.21,6.55,9.21,6.55l-3.37,19.64-1.35,1.54A220.48,220.48,0,0,0,1081.76,252.63Z"/><path class="cls-24" d="M1041.93,207.88c-5.94,6.77-29.7,34-32.11,38.78-2.75,5.5-2.05,9.48,9.93,12.07l50.58,10.94s10.73,2.33,12.66-6.58c.46-2.12-.09-5.89-1.23-10.46A220.48,220.48,0,0,1,1041.93,207.88Z"/><path class="cls-28" d="M1035.44,222.42s-15.2,18-16.54,20.54-5.6,9,4.45,11.41,49,10.72,49,10.72,7.33-.15,5-10.8c-2.49-11.11-9-26.23-9-26.23S1043.34,227,1035.44,222.42Z"/><path class="cls-1" d="M1043.6,236.35a2.81,2.81,0,1,1-2.42-3.16A2.81,2.81,0,0,1,1043.6,236.35Z"/><path class="cls-1" d="M1072.62,256.21a2.81,2.81,0,1,1-2.42-3.16A2.81,2.81,0,0,1,1072.62,256.21Z"/><path class="cls-1" d="M1061.45,237A1.73,1.73,0,1,1,1060,235,1.72,1.72,0,0,1,1061.45,237Z"/><path class="cls-1" d="M1029.5,245.7a1.72,1.72,0,1,1-1.48-1.93A1.73,1.73,0,0,1,1029.5,245.7Z"/><path class="cls-1" d="M1057.26,251.12a4,4,0,1,1-3.42-4.45A4,4,0,0,1,1057.26,251.12Z"/><path class="cls-29" d="M613.56,297.8c-14.7,13.16-45.52,68.7-12,91s77.4-22.9,82.34-43-6.7-25.43-13.1-21.47-8.66,0-8.66-2.26c0-7.08,7.57-17.25-2.61-28.84S628.26,284.63,613.56,297.8Zm42.32,37.27c-4.16,5-10.29,6.77-13.67,3.95s-2.75-9.16,1.42-14.16,10.29-6.77,13.68-3.95S660.06,330.08,655.88,335.07Z"/><path class="cls-13" d="M610.94,298c-14.7,13.17-45.52,68.72-12,91.05a35.46,35.46,0,0,0,12.31,5.24,221.08,221.08,0,0,0,36.67-54.77c-3.07,1.44-6.2,1.45-8.29-.29-3.39-2.82-2.75-9.17,1.42-14.16s10.29-6.77,13.68-4a5.37,5.37,0,0,1,.8.85q3.53-9.06,6.43-18.4a20.06,20.06,0,0,0-5.07-10.06C646.68,282,625.64,284.87,610.94,298Z"/><path class="cls-30" d="M653.26,335.31a15.81,15.81,0,0,1-5.38,4.24,221.08,221.08,0,0,1-36.67,54.77c31.06,6.65,65.66-30.54,70-48.21,4.95-20.06-6.7-25.43-13.11-21.47s-8.66,0-8.65-2.26c0-4.94,3.69-11.39,2.45-18.78q-2.91,9.33-6.43,18.4C657.91,325.1,657.06,330.76,653.26,335.31Z"/><path class="cls-24" d="M637.5,294.45a9.47,9.47,0,0,0-10.73,4.45c-4.3,7,1.13,11.77,7.07,12.76C633.12,305.38,634,299.14,637.5,294.45Z"/><path class="cls-23" d="M642.71,309.38c5.67-6.05,2.9-9.56.9-11.7a12.5,12.5,0,0,0-6.11-3.23c-3.48,4.69-4.38,10.93-3.66,17.21C637.17,312.21,640.67,311.56,642.71,309.38Z"/><path class="cls-31" d="M611.28,312.71a9.49,9.49,0,0,0-8.77,7.62c-1.86,7.95,4.81,10.81,10.76,9.86C610.6,324.46,609.47,318.26,611.28,312.71Z"/><path class="cls-12" d="M621,325.22c3.46-7.54-.28-10-2.86-11.39a12.51,12.51,0,0,0-6.82-1.12c-1.81,5.55-.68,11.75,2,17.48C616.6,329.65,619.72,327.93,621,325.22Z"/><path class="cls-32" d="M596.92,343.76a9.47,9.47,0,0,0-4.08,10.87c2.14,7.88,9.36,7.22,14.14,3.55C601.91,354.42,598,349.5,596.92,343.76Z"/><path class="cls-4" d="M611.39,350.15c-.54-8.27-5-8.65-7.94-8.65a12.47,12.47,0,0,0-6.53,2.26c1.05,5.74,5,10.66,10.06,14.42C609.67,356.13,611.58,353.13,611.39,350.15Z"/><path class="cls-26" d="M605.93,369.53A9.48,9.48,0,0,0,603.81,381c3.49,7.39,10.49,5.47,14.55,1C612.71,379.15,608,375,605.93,369.53Z"/><path class="cls-17" d="M621.29,373.29c-2-8.05-6.44-7.63-9.33-7.13a12.61,12.61,0,0,0-6,3.37c2,5.47,6.78,9.62,12.43,12.45C620.64,379.48,622,376.19,621.29,373.29Z"/><path class="cls-33" d="M650.43,348.94c-11.69,7.84-26.29,19.81-25.91,30.55.1,2.9,2.79,2.2,5.34,1.74a21.91,21.91,0,0,0,6.44-2.68C638.91,368.12,644.11,358,650.43,348.94Z"/><path class="cls-34" d="M670.14,346.11l-5.51-5.73s-6.46,3.38-14.2,8.56c-6.32,9.1-11.52,19.18-14.13,29.61C649.72,370.92,670.66,350,670.14,346.11Z"/><path class="cls-35" d="M673.88,342.16c4.63-1.34,9.33-3.67,12.11-7.8a18,18,0,0,0,2.81-9.07c-.87,3-1.54,5.93-4,8.54a16.08,16.08,0,0,1-4.79,3.85c-2.44,1.15-5,1.93-6.79,4.1a.16.16,0,0,1-.25-.19c2.25-3.22,6.48-3.43,9.29-6a16.82,16.82,0,0,0,5.56-8.88c.18-.81.36-1.59.57-2.36a20.64,20.64,0,0,0-2.12,3.14,12.13,12.13,0,0,1-3.24,4.28c-3.92,3.12-8.51,4.31-11.92,8.24-.12.12-.32,0-.22-.16,2.44-3.49,5.67-4.68,9.19-6.76,3.23-1.91,4.56-4.19,6.33-7.4l.32-.52c-5.51,4.68-13.45,6.2-16.43,14,0,.09-.16,0-.14-.05,2.4-9.44,13.68-10.11,18.75-17.13h0c-5.42,6.76-19.43,3-19.52,14.93a.15.15,0,0,1-.23.1c.26.81,1.54,4.14,4.55,5.34A.2.2,0,0,1,673.88,342.16Z"/><path class="cls-35" d="M688.25,321.85l-.1,0c-4.15,3.08-5.36-.31-12.58,3.55a11.75,11.75,0,0,0-6.18,8.07C671.46,325.9,683.34,326.75,688.25,321.85Z"/><path class="cls-35" d="M675,342.38c12-.55,15.89-15.82,14.71-19.8-.12.34-.24.69-.35,1C689.79,332.82,683.69,339.71,675,342.38Z"/><path class="cls-36" d="M689.08,322.15v-.09c-5.16,6.95-16.45,7.46-19,16.86,0,.09.09.15.13.06,3.09-7.73,11-9.14,16.63-13.74A16,16,0,0,0,689.08,322.15Z"/><path class="cls-36" d="M686.86,325.24q-.18.25-.33.51c-1.82,3.19-3.18,5.45-6.44,7.31-3.55,2-6.79,3.18-9.28,6.63a.14.14,0,0,0,.22.16c3.47-3.87,8.08-5,12-8.06a12.15,12.15,0,0,0,3.29-4.24,20.9,20.9,0,0,1,2.17-3.11c.11-.4.24-.79.37-1.18A15.87,15.87,0,0,1,686.86,325.24Z"/><path class="cls-36" d="M689.05,322.86c0-.24,0-.47,0-.71a16,16,0,0,1-2.22,3.09,15.87,15.87,0,0,0,2-2Z"/><path class="cls-36" d="M689.32,322s0,.07,0,.1,0-.05,0-.08a.86.86,0,0,1,.07-.1.93.93,0,0,0-.15-.13c0,.05-.07.08-.1.13A.11.11,0,0,1,689.32,322Z"/><path class="cls-36" d="M688.53,324.44c-.22.77-.42,1.55-.6,2.36-.85,3.64-3,6.34-5.7,8.8s-7.07,2.69-9.37,5.89a.16.16,0,0,0,.26.18c1.81-2.14,4.38-2.88,6.84-4a16.25,16.25,0,0,0,4.85-3.79c2.46-2.57,3.16-5.44,4.09-8.48.05-.54.09-1.1.12-1.66C688.87,324,688.7,324.21,688.53,324.44Z"/><path class="cls-36" d="M689.4,323.12c0,.2,0,.41,0,.61.12-.34.25-.67.38-1a2.47,2.47,0,0,0-.1-.29A7.24,7.24,0,0,1,689.4,323.12Z"/><path class="cls-36" d="M689,323.1a1.07,1.07,0,0,1-.14.16c-.13.39-.26.78-.37,1.18.17-.23.34-.46.49-.69S689,323.32,689,323.1Z"/><path class="cls-36" d="M689.4,323.12a7.24,7.24,0,0,0,.32-.7.37.37,0,0,0-.05-.11l-.3.39Z"/><path class="cls-36" d="M688.9,323.26a1.07,1.07,0,0,0,.14-.16v-.24Z"/><path class="cls-36" d="M689.35,322.06s0,.05,0,.08c0,.19,0,.37,0,.56l.3-.39a1.21,1.21,0,0,0-.25-.35A.86.86,0,0,0,689.35,322.06Z"/><path class="cls-36" d="M669.38,333.36a9.93,9.93,0,0,0-.34,3.34.12.12,0,0,0,.08.1l-.06-.18A11.44,11.44,0,0,1,669.38,333.36Z"/><path class="cls-36" d="M669.35,336.7c.26-11.89,14.22-8,19.74-14.64h0a.1.1,0,0,1,.07-.09.3.3,0,0,1,0-.08.07.07,0,0,1,0-.06.86.86,0,0,0-.82.14c-5,4.83-16.85,3.81-19,11.4a11.44,11.44,0,0,0-.32,3.26l.06.18C669.2,336.85,669.35,336.82,669.35,336.7Z"/><path class="cls-36" d="M689.22,321.82h0l.06-.05,0-.1A.23.23,0,0,0,689.22,321.82Z"/><path class="cls-36" d="M689.26,321.83h0a.07.07,0,0,0,0,.06.3.3,0,0,0,0,.08h0Z"/><path class="cls-36" d="M674.83,342.3c8.75-2.55,14.95-9.34,14.61-18.57q-.29.86-.54,1.68a17.86,17.86,0,0,1-2.95,9c-2.83,4.09-7.56,6.35-12.21,7.63a.19.19,0,0,0-.14.13l.24.11C674.18,342.32,674.5,342.31,674.83,342.3Z"/><path class="cls-36" d="M689.14,322a.18.18,0,0,0,0,.07h0l.06-.07Z"/><path class="cls-36" d="M689.14,322l-.06.07v.09Z"/><path class="cls-36" d="M689.14,322Z"/><path class="cls-36" d="M689.32,322a.11.11,0,0,0-.15-.08,0,0,0,0,0,0,0h0l-.06.16c0,.24,0,.47,0,.71.09-.24.18-.48.28-.72C689.33,322.11,689.32,322.08,689.32,322Z"/><path class="cls-36" d="M689,323.75c0,.56-.07,1.12-.12,1.66q.26-.82.54-1.68c0-.2,0-.41,0-.61C689.28,323.33,689.16,323.54,689,323.75Z"/><path class="cls-36" d="M689,323.1c0,.22,0,.43,0,.65.14-.21.26-.42.38-.63l0-.42Z"/><path class="cls-36" d="M689.33,322.14c-.1.24-.19.48-.28.72v.24l.33-.4C689.35,322.51,689.35,322.33,689.33,322.14Z"/><path class="cls-36" d="M689.15,322a.1.1,0,0,0-.07.09h0a.18.18,0,0,1,0-.07A0,0,0,0,0,689.15,322Z"/><path class="cls-36" d="M689.15,322a0,0,0,0,1,0,0h0a0,0,0,0,1,0,0Z"/><path class="cls-36" d="M689.17,322a0,0,0,0,0,0,0,0,0,0,0,1,0,0Z"/><path class="cls-24" d="M664.63,340.38c.74,4,5.51,5.73,5.51,5.73l.27-.16a17.39,17.39,0,0,1-.81-9.17C666.56,335.68,664.63,340.38,664.63,340.38Z"/><path class="cls-23" d="M670.53,337.26a3.44,3.44,0,0,0-.93-.48,17.39,17.39,0,0,0,.81,9.17C675.89,342.9,674,339.8,670.53,337.26Z"/><path class="cls-37" d="M458.59,166.27s85.55-18.82,92-20.08c5.78-1.13,7.08-.32,7.92,1.47-14.66,5.74-30.06,8-46.6,10.11-18.58,3.1-35.35,7.21-54.42,8.93A4.71,4.71,0,0,1,458.59,166.27Z"/><path class="cls-38" d="M476.59,178.25s32-7,34.42-7.51,2.73-.05,3.06.78l-29,26.21c-.56,1-.95,1.71-1.21,2.26-1.36.57-1.67-1-1.67-1s-5.86-17.23-6.57-19.23C475.17,178.55,476.59,178.25,476.59,178.25Z"/><path class="cls-34" d="M456,170.35c1.89,5.34,17.54,51.36,17.54,51.36s1.09,5.42,6.2,1.6c1-.77,73.72-67.23,73.72-67.23s6.18-5.6,5.3-7.8a5,5,0,0,0-.27-.62c-14.66,5.74-30.06,8-46.6,10.11-18.58,3.1-35.35,7.21-54.42,8.93A2.74,2.74,0,0,0,456,170.35Zm20.6,7.9s32-7,34.42-7.51,2.73-.05,3.06.78c0,0,2,.2-6.48,8.4S486,200.86,484.7,201.21c-1,.28-1.78.75-.85-1.22-1.36.57-1.67-1-1.67-1s-5.86-17.23-6.57-19.23C475.17,178.55,476.59,178.25,476.59,178.25Z"/><path class="cls-37" d="M512.09,174.44s2.31-2.09,2-2.92c0,0,2,.2-6.48,8.4S486,200.86,484.7,201.21c-1,.28-1.78.75-.85-1.22a2.68,2.68,0,0,0,.64-.39C484.88,199.32,512.09,174.44,512.09,174.44Z"/><path class="cls-39" d="M550.26,150.51c-.21-.9-.41-1.8-.59-2.7a8.1,8.1,0,0,0-.27-1.37c-.07-.18.27-.25.27,0a5.48,5.48,0,0,0,.26,1.34,22.9,22.9,0,0,1,.47,2.73c0,.09-.12.13-.14,0Z"/><path class="cls-39" d="M540.2,153c-.21-.89-.4-1.79-.59-2.69a9.22,9.22,0,0,0-.27-1.37c-.07-.18.27-.25.27,0a5,5,0,0,0,.26,1.33,22.9,22.9,0,0,1,.47,2.73c0,.1-.12.14-.14,0Z"/><path class="cls-39" d="M530.28,155c-.21-.9-.4-1.8-.59-2.7a8.1,8.1,0,0,0-.27-1.37c-.07-.18.27-.25.27,0a5.58,5.58,0,0,0,.26,1.34,20.9,20.9,0,0,1,.47,2.72c0,.1-.12.14-.14,0Z"/><path class="cls-39" d="M520.24,157.27c-.2-.89-.4-1.79-.59-2.69a7.91,7.91,0,0,0-.27-1.37c-.07-.18.27-.25.27,0a5.4,5.4,0,0,0,.26,1.33,21,21,0,0,1,.47,2.73c0,.1-.12.14-.14,0Z"/><path class="cls-39" d="M512,159c-.2-.9-.4-1.8-.59-2.7a7.8,7.8,0,0,0-.27-1.36c-.07-.19.27-.25.28,0a5,5,0,0,0,.25,1.33,22.93,22.93,0,0,1,.48,2.73.08.08,0,0,1-.15,0Z"/><path class="cls-39" d="M504.11,160.68c-.2-.9-.4-1.8-.59-2.7a8.1,8.1,0,0,0-.27-1.37c-.07-.18.27-.25.28,0a5,5,0,0,0,.25,1.34,22.93,22.93,0,0,1,.48,2.73.08.08,0,0,1-.15,0Z"/><path class="cls-39" d="M496.68,162.43c-.2-.89-.4-1.79-.59-2.69a8.1,8.1,0,0,0-.27-1.37c-.07-.18.27-.25.27,0a5.48,5.48,0,0,0,.26,1.34,22.23,22.23,0,0,1,.47,2.73.07.07,0,1,1-.14,0Z"/><path class="cls-39" d="M489,164.18c-.2-.89-.4-1.79-.59-2.69a7.91,7.91,0,0,0-.27-1.37c-.07-.18.27-.25.27,0a5.5,5.5,0,0,0,.26,1.33,22.93,22.93,0,0,1,.48,2.73c0,.1-.12.14-.15,0Z"/><path class="cls-39" d="M482.4,165.26c-.21-.9-.4-1.79-.59-2.7a8.85,8.85,0,0,0-.27-1.36c-.07-.19.27-.25.27,0a4.68,4.68,0,0,0,.26,1.33,22.9,22.9,0,0,1,.47,2.73c0,.09-.12.14-.14,0Z"/><path class="cls-39" d="M475.48,167c-.21-.89-.41-1.79-.59-2.69a9,9,0,0,0-.27-1.37c-.07-.18.27-.25.27,0a5.06,5.06,0,0,0,.26,1.33,25.11,25.11,0,0,1,.47,2.73c0,.09-.12.14-.14,0Z"/><path class="cls-39" d="M467.74,168.56c-.21-.9-.4-1.8-.59-2.7a9.22,9.22,0,0,0-.27-1.37c-.07-.18.26-.25.27,0a5.13,5.13,0,0,0,.26,1.34,24.3,24.3,0,0,1,.47,2.73c0,.09-.12.13-.14,0Z"/><path class="cls-5" d="M878.85,216.49c-1.21-10.88-5.24-43.53-9.82-42.87-8.24,1.17-32,6.62-31.39,10.79.39,2.75,4.3,21.71,6.19,30.85a6.74,6.74,0,0,0-3.42-.43c-4.07.59-6.84,4.82-6.18,9.47s4.5,7.94,8.58,7.36,6.84-4.82,6.18-9.47a9.81,9.81,0,0,0-.62-2.28c.19-8.23-3.13-24-3.13-24s20.71-7.61,24.23-7l3.82,21.74a6.49,6.49,0,0,0-2.71-.18c-4.07.58-6.84,4.81-6.17,9.46s4.5,7.94,8.58,7.36c3.45-.5,6-3.61,6.24-7.37h0a9.8,9.8,0,0,0-.06-2.09A9.06,9.06,0,0,0,878.85,216.49Z"/><path class="cls-12" d="M1129.54,73.74c-3.16-10.49-13-41.87-17.41-40.4-7.89,2.65-30.26,12.29-28.92,16.28.88,2.64,8.15,20.59,11.66,29.23a6.61,6.61,0,0,0-3.44.2c-3.9,1.31-5.86,6-4.37,10.42s5.86,7,9.77,5.69,5.86-6,4.36-10.42a9,9,0,0,0-1-2.14c-1.3-8.12-7.4-23-7.4-23s19-11.22,22.57-11.22l7.69,20.7a6.74,6.74,0,0,0-2.7.3c-3.9,1.31-5.86,6-4.37,10.43s5.87,7,9.77,5.68c3.31-1.1,5.2-4.62,4.81-8.37h0a9.4,9.4,0,0,0-.44-2A9.56,9.56,0,0,0,1129.54,73.74Z"/><path class="cls-40" d="M1042.51,118.36s11.39-31.55,9-34.53-15.4,38.91-12.17,36.72S1045,117,1045,117"/><path class="cls-40" d="M1042.75,111.81s4.74-29.06-10.86-31.59C1027.09,89.65,1036.55,110.87,1042.75,111.81Z"/><path class="cls-19" d="M1015.54,109.67c-7.71,7.85-8.91,21.34-6.29,32.34,3,12.76,13.26,11.68,18.65,6.3,0,6.55,5.3,13.56,13.87,11.05C1026.15,147.87,1016,129.17,1015.54,109.67Z"/><path class="cls-20" d="M1046.24,157.32c11.17-6.89,21.1-19.77,17.76-32.66s-23.93-8-23.93-8-8.85-17.11-20.32-10.35a20.79,20.79,0,0,0-4.21,3.31c.46,19.5,10.61,38.2,26.23,49.69A18.19,18.19,0,0,0,1046.24,157.32Z"/><path class="cls-1" d="M1048.81,120s7.89-1.52,10.8,3.41,1.36,10.83-.55,13.75-1.11-7.59-2.36-10.12S1043.35,123.61,1048.81,120Z"/><path class="cls-24" d="M636.17,76.34a55.77,55.77,0,1,0-111-11.19c-.18,1.84-.27,3.67-.28,5.49l4.89.49c0-1.68.09-3.38.26-5.09a51.09,51.09,0,1,1,100.2,18.24l4.41.45A55.92,55.92,0,0,0,636.17,76.34Z"/><path class="cls-14" d="M586,20.34A51.08,51.08,0,0,0,530.07,66c-.17,1.71-.26,3.41-.26,5.09l5,.51a46.34,46.34,0,0,1,.23-5.5,45.84,45.84,0,1,1,89.58,17.58l5.61.56A51,51,0,0,0,586,20.34Z"/><path class="cls-15" d="M539,66.94a42.16,42.16,0,1,1,82.3,16.43l3.41.35a45.84,45.84,0,1,0-89.81-12.08l3.9.39A41.49,41.49,0,0,1,539,66.94Z"/><path class="cls-16" d="M585.13,29.23A42.15,42.15,0,0,0,539,66.94a41.49,41.49,0,0,0-.2,5.09l4.31.44a39.22,39.22,0,0,1,.15-5.51,37.67,37.67,0,1,1,73.14,15.92l4.9.49a42.16,42.16,0,0,0-36.12-54.14Z"/><path class="cls-4" d="M546.93,67.75a34.14,34.14,0,0,1,67.93,6.85,34.67,34.67,0,0,1-1.77,8l3.26.33A37.67,37.67,0,1,0,543.21,67a39.22,39.22,0,0,0-.15,5.51l3.74.38A32.28,32.28,0,0,1,546.93,67.75Z"/><path class="cls-41" d="M584.32,37.21a34.12,34.12,0,0,0-37.39,30.54,32.28,32.28,0,0,0-.13,5.1l3.81.38a31.25,31.25,0,0,1,.08-5.11,30.36,30.36,0,1,1,58.5,14l3.9.39a34.67,34.67,0,0,0,1.77-8A34.14,34.14,0,0,0,584.32,37.21Z"/><path class="cls-3" d="M554.49,68.1a26.33,26.33,0,1,1,50.14,13.6l4.56.46a30.36,30.36,0,1,0-58.5-14,31.25,31.25,0,0,0-.08,5.11l3.91.4A26.87,26.87,0,0,1,554.49,68.1Z"/><path class="cls-42" d="M555.05,72.58S559.9,51.1,550,50.78s-9.77,16.52-9.77,16.52,3.59-16.09-7.31-14.73C525.64,54.12,527,67.29,527,67.29s-.39-11.2-5.91-9.64c-7.47,2.1-3,12.9-7.61,16.4l39.34,4S554.29,77.05,555.05,72.58Z"/><path class="cls-42" d="M642.75,99.87l-36.59-3.69S597.68,73,612,70.81c0,0,9.77-.43,9.32,12.5,0,0-.61-10.76,6.79-10,8.51.86,4.76,15.69,4.76,15.69s.17-9.8,6.56-8.87S639.62,94.47,642.75,99.87Z"/><text class="cls-43" transform="translate(912.83 195.05) rotate(-16.47)">1+1=2</text><text class="cls-44" transform="translate(512.09 120.22) rotate(11.6)">5x2=10</text><path class="cls-20" d="M795.75,198c3.58-9,4-16.82-1.92-20.88-7.33-5.05-15.59-2.23-23.57,4.25A77.3,77.3,0,0,0,795.75,198Z"/><path class="cls-20" d="M733.85,232.75s-18.81,12.94-17,21.93,10.85,2.64,10.85,2.64-14.27,13.47-6.39,20.43,15.32-8.25,15.32-8.25-.2,2.81,4.41,6.17c8.18,6,17.15-25.21,17.15-25.21Z"/><path class="cls-26" d="M737.87,235.67s-12.93,8.89-11.7,15.06,7.45,1.82,7.45,1.82-9.8,9.24-4.39,14,10.52-5.66,10.52-5.66-.14,1.93,3,4.23c5.62,4.1,11.77-17.31,11.77-17.31Z"/><path class="cls-1" d="M770.26,181.36c-14.64,11.88-28.37,36-33.87,46.43a177.26,177.26,0,0,0,47.8-9.17c4.73-6.91,9-14.09,11.56-20.63A77.3,77.3,0,0,1,770.26,181.36Z"/><path class="cls-45" d="M733.85,232.75c6.84,13.92,24.31,17.71,24.31,17.71-.8,1.1,14.13-14.48,26-31.84a177.26,177.26,0,0,1-47.8,9.17C734.77,230.86,733.85,232.75,733.85,232.75Z"/><path class="cls-46" d="M782.58,214.45c-3.62,5-11.7,7.37-17.23,3.34s-8.46-11.41-3.89-17.68a12.28,12.28,0,0,1,16.87-2.54C783.85,201.59,786.2,209.48,782.58,214.45Z"/><path class="cls-47" d="M777.1,199.44a9.9,9.9,0,0,0-9-1.32,9.49,9.49,0,0,0-4.74,3.39c-3.72,5.1-1.33,11.12,3.17,14.39,3.67,2.68,8.74,1.86,12.07-.74a9.33,9.33,0,0,0,1.94-2C783.52,209.14,781.6,202.72,777.1,199.44Z"/><path class="cls-46" d="M745.6,209.7s-19.39-2-23.56,8.73-4.31,12.49-2.42,14.83c2.48,3.06,16.38-3.33,16.38-3.33Z"/><path class="cls-48" d="M747.55,208.7s-19.39-2-23.56,8.72-4.81,13-2.42,14.83c3,2.31,16.38-3.33,16.38-3.33Z"/><path class="cls-46" d="M774.73,231.27s8.77,17.41.25,25.12-10.13,8.48-13,7.55c-3.75-1.22-2.73-16.5-2.73-16.5Z"/><path class="cls-49" d="M775,229.09s8.77,17.41.25,25.12-10.43,9.13-13,7.55c-3.24-2-2.73-16.5-2.73-16.5Z"/><path class="cls-26" d="M806,133.9c-3-2.28-6.34-4.58-9.91-6.87l-8,5.84s11.72,16.84,22.5,25.87A98.35,98.35,0,0,0,806,133.9Z"/><path class="cls-15" d="M806,133.9a98.35,98.35,0,0,1,4.62,24.84c5.68,4.76,11.11,7.35,14.4,4.14C830.46,157.59,822.23,146.05,806,133.9Z"/><path class="cls-24" d="M789.92,136.13c6-1.15,9-7.48,9-7.48s-.14-.22-.21-.35a29.07,29.07,0,0,1-13.52,1.47C783.24,133.8,789.92,136.13,789.92,136.13Z"/><path class="cls-23" d="M786,128.53a5.45,5.45,0,0,0-.81,1.24,29.07,29.07,0,0,0,13.52-1.47C794.85,121.26,790.1,123.81,786,128.53Z"/><path class="cls-46" d="M791.9,127.17c-10,9.2-28.63,10.84-38.83-.33s-13.33-28.49-.67-40c10.05-9.19,27.5-9.27,37.71,1.9S801.94,118,791.9,127.17Z"/><path class="cls-1" d="M786.62,92.22a21.87,21.87,0,0,0-18.89-6.83A21.13,21.13,0,0,0,756,90.67c-10.3,9.41-7.77,23.51.54,32.59,6.79,7.43,18.13,7.88,26.51,3.72a21.87,21.87,0,0,0,5.08-3.45C796.27,116.06,794.93,101.3,786.62,92.22Z"/><path class="cls-50" d="M767.73,85.39A21.13,21.13,0,0,0,756,90.67c-7.3,6.66-8.14,15.67-5.06,23.59,6.47-9.71,13.08-19.39,20.05-29A21.5,21.5,0,0,0,767.73,85.39Z"/><path class="cls-51" d="M776.08,86c-7.05,12.36-13.71,24.6-19.58,37.3a19.55,19.55,0,0,0,11.34,6c4.49-13.67,9.4-27.26,14-40.91A22.07,22.07,0,0,0,776.08,86Z"/><path class="cls-52" d="M786.36,92a20.94,20.94,0,0,0-4.49-3.61c-4.63,13.65-9.54,27.24-14,40.91a24.63,24.63,0,0,0,8.26-.06C777.42,116.15,783,104.57,786.36,92Z"/><path class="cls-53" d="M786.62,92.22c-.08-.1-.18-.16-.26-.25-3.35,12.6-8.94,24.18-10.26,37.24A25.57,25.57,0,0,0,783,127a21.87,21.87,0,0,0,5.08-3.45C796.27,116.06,794.93,101.3,786.62,92.22Z"/><path class="cls-52" d="M770.94,85.26c-7,9.61-13.58,19.29-20.05,29a28.78,28.78,0,0,0,5.6,9h0c5.87-12.7,12.53-24.94,19.58-37.3A22.49,22.49,0,0,0,770.94,85.26Z"/><ellipse class="cls-25" cx="799.78" cy="620.99" rx="248" ry="38.44"/><path class="cls-54" d="M954.8,608.28c-4.2,8.23,0,18.69,0,18.69L988,617a7.21,7.21,0,0,1-1-1.71,157.86,157.86,0,0,1-29-7.87Z"/><path class="cls-1" d="M987.22,599.17,958,607.38a157.86,157.86,0,0,0,29,7.87C984.52,609.43,987.22,599.17,987.22,599.17Z"/><path class="cls-17" d="M877.8,601.35l-9.54-.42c-8.48,12.34-1.1,25-1.1,25l11.11.49C874.61,618.39,875,609.61,877.8,601.35Z"/><path class="cls-14" d="M886.63,601.74l-8.83-.39c-2.83,8.26-3.19,17,.47,25.08l9.08.4A48.49,48.49,0,0,1,886.63,601.74Z"/><path class="cls-17" d="M925.55,603.44l-38.92-1.7a48.49,48.49,0,0,0,.72,25.09l39,1.71A47.19,47.19,0,0,1,925.55,603.44Z"/><path class="cls-14" d="M936.23,603.91l-10.68-.47a47.19,47.19,0,0,0,.85,25.1l11.93.52A59.54,59.54,0,0,1,936.23,603.91Z"/><path class="cls-17" d="M990.9,616.08,954.82,627c-2.05-9.44-1.15-15.37,0-18.69h0l35.41-9.95c1-1.36.14-3.34.14-3.34l-33.76,9.81-20.36-.89a59.54,59.54,0,0,0,2.1,25.15l17.17.75h0l35.29-10.43C991.83,618,990.9,616.08,990.9,616.08Z"/><polygon class="cls-28" points="868.26 600.93 911.08 591.51 990.35 594.99 956.59 604.8 868.26 600.93"/><path class="cls-23" d="M909.19,617.06l4.56-6.22-7.54,1L900,607.29l1,7.54L896.45,621l7.54-1,6.21,4.56Z"/><path class="cls-54" d="M652.94,599.56c4.52,8.05.72,18.67.72,18.67l-33.54-8.69a7.28,7.28,0,0,0,.92-1.75,157.18,157.18,0,0,0,28.65-9Z"/><path class="cls-1" d="M620.19,591.73l29.5,7a157.18,157.18,0,0,1-28.65,9C623.29,601.88,620.19,591.73,620.19,591.73Z"/><path class="cls-12" d="M729.61,589.58l9.51-.79c9,12,2.09,24.94,2.09,24.94l-11.08.93C733.47,606.48,732.76,597.72,729.61,589.58Z"/><path class="cls-40" d="M720.8,590.32l8.81-.74c3.15,8.14,3.86,16.9.52,25.08l-9.06.76A48.53,48.53,0,0,0,720.8,590.32Z"/><path class="cls-12" d="M682,593.56l38.82-3.24a48.53,48.53,0,0,1,.27,25.1l-39,3.25A47.16,47.16,0,0,0,682,593.56Z"/><path class="cls-40" d="M671.32,594.45l10.66-.89a47.16,47.16,0,0,1,.14,25.11l-11.9,1A59.59,59.59,0,0,0,671.32,594.45Z"/><path class="cls-12" d="M617.18,608.78l36.48,9.45c2.26-12.85,2.62-10-.72-18.67h0L617.17,591c-1.11-1.32-.28-3.33-.28-3.33L651,596.15l20.31-1.7a59.59,59.59,0,0,1-1.1,25.22L653.1,621.1h0l-35.69-9C616.32,610.75,617.18,608.78,617.18,608.78Z"/><polygon class="cls-41" points="739.12 588.79 695.96 581.07 616.89 587.68 651.01 596.15 739.12 588.79"/><path class="cls-46" d="M698.15,614.09l6-4.81,7.57.71-4.81-6,.71-7.57-6,4.8-7.57-.71,4.81,6Z"/><path class="cls-54" d="M956,579.72c-3.54,8.25-.13,18.68-.13,18.68l22.8-8.49a49.43,49.43,0,0,1-18.83-11.53Z"/><path class="cls-1" d="M982.89,570.36l-23.08,8a49.43,49.43,0,0,0,18.83,11.53l4.75-1.77C980,583,982.89,570.36,982.89,570.36Z"/><path class="cls-23" d="M889.85,573.26l-5.51-.24c-7.12,12.39-1.09,25-1.09,25l6.59.29A41.69,41.69,0,0,1,889.85,573.26Z"/><path class="cls-17" d="M895.43,573.5l-5.58-.24a41.69,41.69,0,0,0,0,25.06l5.79.25C894,590.27,893.36,581.52,895.43,573.5Z"/><path class="cls-17" d="M947.11,575.76l-11.56-.5a63.65,63.65,0,0,0,1.18,25.11l10.55.46A80.17,80.17,0,0,1,947.11,575.76Z"/><path class="cls-23" d="M985.81,587.23l-30,11.17C954.21,589,955,583,956,579.72h0l29.4-10.22a4.29,4.29,0,0,0,.14-3.35l-28,10.07-10.37-.46a80.17,80.17,0,0,0,.17,25.07l9.1.4h0l29.31-10.69A4.2,4.2,0,0,0,985.81,587.23Z"/><path class="cls-23" d="M935.55,575.26l-22-1-11.21-.49-7-.31c-2.07,8-1.42,16.77.2,25.07l7.64.34,9.53.41,23.93,1A63.65,63.65,0,0,1,935.55,575.26Z"/><polygon class="cls-24" points="884.34 573.02 919.88 563.28 985.51 566.15 957.48 576.22 884.34 573.02"/><path class="cls-32" d="M843.66,557.81s-37.47,20.72-88.08-.77l-17.32-6.87s-30.82,46.61,18.19,62.61,105-1,112.06-11S866.79,558.65,843.66,557.81Z"/><path class="cls-55" d="M809.82,580.1l-43.36,28.42L781.1,639l62.82-29.34L859,601.77c-16.26-5.58-31.75-14.28-45.46-24.11Z"/><path class="cls-4" d="M871,553.92c-8.08-8.51-20.57-.54-20.57-.54l-36.87,24.28c13.71,9.83,29.2,18.53,45.46,24.11l12.24-6.37S895.84,580.09,871,553.92Z"/><path class="cls-46" d="M764.76,609.18c5.59,42.22,28.63,22,16.82,30.73,0,0-51.06,9.57-61.11-14.28C711.53,604.44,764.76,609.18,764.76,609.18Z"/><path class="cls-45" d="M751,639.72c15.67,1.66,31.73-1.55,31.73-1.55-7.81-9.19-15.07-30.41-15.07-30.41s-17.2-1.52-30.41,1C745.53,617.13,749.72,628,751,639.72Z"/><path class="cls-46" d="M765.34,619.78c4.94,2,11,4.45,16.27,2.52,2.29-.83,2.87-3.45.42-4.37-1.62-.61-4,0-5.67.22-3.7.61-7.27,2.19-10.72,3.65-.39-.86-.76-1.72-1.14-2.58,3.41-1.44,6.83-2.78,10.14-4.45,1.2-.61,13.48-8.46,7-9.33-3.36-.45-7.46,5.47-9.19,7.62a98,98,0,0,0-6,8.42c-1.15,1.8-3.87-.16-2.67-1.94,3.11-4.62,13.41-21.57,20.67-15.82,9.17,7.25-14.88,16.39-18.76,18.08a1.41,1.41,0,0,1-1.14-2.58c5.29-2.31,11.26-4.55,17.14-4,2.42.22,5.93,2.38,5.21,5.26-2.46,9.75-17.11,3.88-22.25.65a.79.79,0,0,1,.74-1.37Z"/><path class="cls-46" d="M737.21,608.81c-10,2-17.74,6.26-13.88,15.4,4.31,10.24,15.86,14.25,27.63,15.51C749.72,628,745.53,617.13,737.21,608.81Z"/><path class="cls-46" d="M756.5,610.5c4.73,8,10,15,11.36,24.47.08.6,1.1.55,1.07-.06-.41-9.42-6.75-17.22-11.79-24.74-.25-.37-.88-.08-.64.33Z"/><path class="cls-46" d="M748.84,611.26c4.74,8,10,15,11.37,24.48.08.6,1.09.55,1.06-.07-.4-9.41-6.75-17.21-11.78-24.73-.25-.37-.88-.08-.65.32Z"/><path class="cls-55" d="M726.23,595.4l31.25,12.79,62.82,29.34,10.78-22.42c-40.71-1.08-83.6-16.06-115.24-43.06C712.78,587,726.23,595.4,726.23,595.4Z"/><path class="cls-4" d="M791.58,578.67l-44.52-25.29s-12.49-8-20.58.54c-6.46,6.81-9.56,12.87-10.64,18.13,31.64,27,74.53,42,115.24,43.06l3.86-8Z"/><path class="cls-46" d="M836.64,607.75c-5.59,42.23-28.63,22-16.82,30.73,0,0,51.06,9.58,61.11-14.28C889.87,603,836.64,607.75,836.64,607.75Z"/><path class="cls-45" d="M850.44,638.29c-15.67,1.67-31.73-1.55-31.73-1.55,7.81-9.18,15.07-30.4,15.07-30.4s17.2-1.53,30.41,1C855.87,615.71,851.68,626.6,850.44,638.29Z"/><path class="cls-46" d="M836.06,618.35c-4.94,2-11,4.46-16.27,2.52-2.29-.82-2.87-3.44-.42-4.36,1.62-.61,4-.06,5.67.21,3.7.61,7.27,2.19,10.72,3.65.39-.86.76-1.72,1.14-2.58-3.41-1.44-6.83-2.78-10.14-4.44-1.2-.62-13.47-8.46-7-9.34,3.36-.44,7.46,5.47,9.2,7.62,2.17,2.68,4.1,5.54,6,8.42,1.15,1.81,3.87-.16,2.68-1.93-3.12-4.63-13.42-21.57-20.68-15.82-9.17,7.24,14.88,16.38,18.76,18.07a1.41,1.41,0,0,0,1.14-2.58c-5.29-2.3-11.26-4.55-17.14-4-2.42.22-5.93,2.38-5.21,5.26,2.46,9.75,17.11,3.89,22.25.65.76-.48.08-1.7-.74-1.37Z"/><path class="cls-46" d="M864.19,607.38c10,2,17.74,6.27,13.89,15.4C873.76,633,862.21,637,850.44,638.29,851.68,626.6,855.87,615.71,864.19,607.38Z"/><path class="cls-46" d="M844.9,609.07c-4.73,8-10,15-11.36,24.48-.08.6-1.1.54-1.07-.07.41-9.41,6.75-17.21,11.79-24.73.25-.37.88-.09.64.32Z"/><path class="cls-46" d="M852.56,609.83c-4.73,8-10,15-11.37,24.49-.08.59-1.09.54-1.06-.07.4-9.42,6.75-17.22,11.78-24.73.25-.38.88-.09.65.31Z"/><path class="cls-56" d="M723,351.09s-28.91,127.38-41.21,140.73c0,0,2.57,2.09,6.83,4.92,2.21,1.46,15.87-12.27,15.87-12.27,3,1.67-4.6,18.54-4.6,18.54,1.31.56,2.84,1.19,4.48,1.83,22.79-47.79,31.57-102.1,32.39-155.11C728.24,350.48,723,351.09,723,351.09Z"/><path class="cls-57" d="M736.74,349.73c-.82,53-9.6,107.32-32.39,155.11,8.67,3.42,21,7.5,28.55,6.75,20.55-2.06,115.06.71,149.38-8.55-21.41-48.31-36.89-99.6-38.11-151.79C812.8,344.29,761.24,347.57,736.74,349.73Z"/><path class="cls-56" d="M918.45,483.25s-39.57-84.5-48.71-116.37c-2.22-7.73-12-12.63-25.57-15.63,1.22,52.19,16.7,103.48,38.11,151.79,5.49-1.48,9.44-3.27,11.31-5.43l-3.53-18.71,13.18,15.92A76,76,0,0,0,918.45,483.25Z"/><path class="cls-58" d="M727.2,490.27S705.58,518,706.34,527.35s23.07,1.39,23.07,1.39L754.46,503Z"/><path class="cls-58" d="M871.15,490.2s22,27.49,21.31,36.82-32.28.19-32.28.19l-13.67-23Z"/><path class="cls-59" d="M816.31,453.44,814.16,460c-4.67,2.16-12.14,2.4-14.78,2.42h-.2c-2.63,0-10.1-.26-14.77-2.42l-.32-5.87s-40-8.79-59.33,36.2c0,0,22.25,15.49,29.13,16.5,0,0-7.53,46.15-5.1,47.52,53.92,30.4,103.13,2,103.13,2l-7.24-49.53c6.88-1,29.13-16.5,29.13-16.5C868.63,469.47,853.89,455.13,816.31,453.44Z"/><path class="cls-13" d="M780.83,439.45s3.65,8.74,3.87,21.93c0,0,16.5,4.62,29-.21l8.56-25.74Z"/><path class="cls-13" d="M710.18,405.75c1.75,8.71,11.3,16.82,28.74,9.42l-.61-12.41A27.32,27.32,0,0,0,710.18,405.75Z"/><path class="cls-58" d="M714.77,393c-4.06,2.62-5.58,7.77-4.59,12.72a27.32,27.32,0,0,1,28.13-3l-.42-8.56S726,385.82,714.77,393Z"/><path class="cls-60" d="M718.67,402.62c4.57-.54,10.43-2.71,14.15,1.17,2.73,2.83,2.74,7.41,3,11.06,0,.27.43.28.42,0-.15-3.88-.34-8.74-3.41-11.57-3.82-3.52-9.72-1.78-14.16-.79-.08,0-.06.14,0,.13Z"/><path class="cls-60" d="M726.73,406.77c4.19-2.55,6.47.46,8.89,3.59.16.2.49-.06.36-.28-2.15-3.47-5.5-6.54-9.42-3.59-.16.12,0,.39.17.28Z"/><path class="cls-13" d="M889.7,399.11C888.82,408,880.11,417,862,411.3l-.61-12.41A27.29,27.29,0,0,1,889.7,399.11Z"/><path class="cls-58" d="M883.89,386.9c4.29,2.21,6.31,7.18,5.81,12.21a27.29,27.29,0,0,0-28.29-.22l-.42-8.56S872.05,380.83,883.89,386.9Z"/><path class="cls-60" d="M881,396.69c-4.56-.55-10.72-1.72-14.13,2.31-2.64,3.11-2.37,7.9-2.14,11.7,0,.27.43.28.42,0-.11-3.48-.5-7.54,1.41-10.65,3.09-5,9.61-3.31,14.44-3.22.1,0,.09-.13,0-.14Z"/><path class="cls-60" d="M873.48,401.46c-4.18-2.57-7.23.79-9,4.47a.23.23,0,0,0,.39.23,19,19,0,0,1,2.73-3.9c1.74-1.64,3.67-1.52,5.73-.52a.16.16,0,0,0,.16-.28Z"/><path class="cls-13" d="M837.17,436.37c10.87-4.78,19.47-11.57,22.58-20.18,6.92-19.13,9.35-32.23,6-51.21s-6.32-31.68-26.43-45.36c-16.28-11.08-114.43-23.74-105.93,63.92,0,0,.08,3.93.6,9.39C757.62,424.16,797.7,438.48,837.17,436.37Z"/><path class="cls-56" d="M748.09,310c-27.2,14.6-26.41,55.48-26.41,55.48,5.57-1.6,11.22.66,11.22.66,1.72-7.9,8.36-14.8,14.57-19.73.18-14.33,4.83-28.65,11.1-41.1A81.53,81.53,0,0,0,748.09,310Z"/><path class="cls-61" d="M768.29,337.16c-.07,0-.1.1-.07.16S768.31,337.41,768.29,337.16Z"/><path class="cls-36" d="M777.39,300.84a83.06,83.06,0,0,0-18.82,4.43c-6.27,12.45-10.92,26.77-11.1,41.1a80.59,80.59,0,0,1,11.93-7.84l5.68-19.85s3.09,16.36,3.21,18.48c.54-.37,3.62-.55,8-.61A96.81,96.81,0,0,1,777.39,300.84Z"/><path class="cls-56" d="M824.15,307.15a97.83,97.83,0,0,0-46.76-6.31,96.81,96.81,0,0,0-1.13,35.71c13.9-.22,41,.77,41,.77l2.42-10.26,4.52,12.07c10,0,17.48,1.37,23.19,3.44-.91-12-4-23.83-9.87-34.21A52.9,52.9,0,0,0,824.15,307.15Z"/><path class="cls-36" d="M848,311.91a47.7,47.7,0,0,0-10.53-3.55c5.88,10.38,9,22.18,9.87,34.21a32.62,32.62,0,0,1,10.84,6.24C857.46,336.31,853.64,323.59,848,311.91Z"/><path class="cls-56" d="M867.25,335.51A34.7,34.7,0,0,0,848,311.91c5.64,11.68,9.46,24.4,10.18,36.9,7.09,6.39,7.14,13.58,7.14,13.58l10,19.26S870.06,346.73,867.25,335.51Z"/><path class="cls-62" d="M734,392.93c.76,8.06,2.47,19.45,6.28,26.4,6.38,11.64,26.46,24,52.49,25.1,14.33.61,31.07-2.21,44.38-8.06C797.7,438.48,757.62,424.16,734,392.93Z"/><path class="cls-60" d="M796.73,370.93c0,3-2.37,8.52-.3,11.16a2.1,2.1,0,0,0,2.39.87,5.19,5.19,0,0,0,1.25-.82c.45-.3,1-.86,1.52-.95q3.46,2.38,1.23,4a2.1,2.1,0,0,1-1.25.92c-.3.13,0,.57.25.44,2.58-1.12,3.83-6.35-.13-5.84a3.62,3.62,0,0,0-1.55.81c-1.08.72-2.1,2.28-3.64-.05a5,5,0,0,1-.3-2.85c.2-2.39,1.51-5.33.72-7.71a.1.1,0,0,0-.19,0Z"/><path class="cls-63" d="M775,368.68c.15,2.29-1.27,4.24-3.17,4.37s-3.58-1.61-3.73-3.9,1.26-4.24,3.17-4.37S774.85,366.39,775,368.68Z"/><path class="cls-63" d="M831.54,368.26c.16,2.29-1.26,4.25-3.16,4.38s-3.58-1.62-3.73-3.91,1.26-4.24,3.16-4.37S831.39,366,831.54,368.26Z"/><path class="cls-60" d="M753.82,359.28a15.54,15.54,0,0,1,11.32-8.61c.25,0,.2-.46-.06-.44-4.68.35-10.18,4.35-11.48,8.95,0,.13.16.23.22.1Z"/><path class="cls-60" d="M829.6,345.89c4.43.29,9.17,1.19,12.48,4.4a.3.3,0,0,0,.43-.43c-3.07-3.16-8.58-4.77-12.91-4.26a.15.15,0,1,0,0,.29Z"/><path class="cls-58" d="M779,390.4c.32,6.58-5.09,12.21-12.11,12.55s-13-4.72-13.28-11.3,5.1-12.22,12.11-12.56S778.65,383.8,779,390.4Z"/><path class="cls-58" d="M848.43,387c.32,6.58-5.1,12.2-12.11,12.55s-13-4.72-13.28-11.31,5.09-12.21,12.11-12.56S848.11,380.39,848.43,387Z"/><path class="cls-60" d="M791.38,387.21c1.59,5.21,7.69,5.07,12.12,4.48.26,0,.27-.43,0-.41-4.58.31-9.62.69-11.87-4.17-.07-.14-.3,0-.25.1Z"/><path class="cls-45" d="M753.56,499.67l2.65-13.09s31.31,12.47,41,25.95v59.54l-49.08-21.73Z"/><path class="cls-45" d="M764.26,497.55l2.13-13.08s25.14,12.47,32.89,25.95V570l-39.41-21.73Z"/><path class="cls-45" d="M775.53,496,777,483s17.16,12.47,22.46,26v59.54l-26.91-21.73Z"/><path class="cls-45" d="M843.23,499.36l-2.65-13.08s-31.31,12.47-41,26v59.54L848.69,550Z"/><path class="cls-45" d="M832.53,497.25l-2.13-13.08s-25.14,12.47-32.89,25.94v59.54l39.41-21.72Z"/><path class="cls-45" d="M821.26,495.74l-1.45-13.08s-17.17,12.47-22.46,25.95v59.54l26.91-21.73Z"/><path class="cls-14" d="M794.25,512.19v62.3s-38.57-18.7-50.19-21.12l-1.83-52.8S741,490.18,750.88,492,791.14,509.78,794.25,512.19Z"/><path class="cls-14" d="M804.63,511.79v61.45s38.57-18.7,50.18-21.12l1.83-52.8s1.24-10.39-8.64-8.52S807.73,509.38,804.63,511.79Z"/><path class="cls-6" d="M794.25,574.49v-62.3s6.77-4.22,10.38-.4v61.45S803,576.65,794.25,574.49Z"/><path class="cls-13" d="M714.23,519.78l31.23-7.23s-1.09-15.82,4.67-15.81,4.27,11.75,4.27,11.75,10.73-9.32,15.09-6.19c3.33,2.39-3,7.74-6.13,10.12-1,.72-1.62,1.17-1.62,1.17s8.41-6.33,12-2.53-8.83,6.7-8.83,6.7,11.48-3.69,10,1.71c-.77,2.83-32.41,25.36-45.52,29.88s-28.82-16.05-24.11-25.06C707.11,520.87,714.23,519.78,714.23,519.78Z"/><path class="cls-13" d="M878.32,517.24l-31.07,7.87s-6.27-14.57-11.39-11.92,1.58,12.39,1.58,12.39-13.8-3.37-16.25,1.41c-1.87,3.66,6.2,5.52,10.08,6.19,1.18.21,2,.31,2,.31s-10.38-1.78-11.84,3.24,10.93,1.91,10.93,1.91-11.9,2-8.14,6.12c2,2.16,40.43,7.71,54.15,5.73s18.28-27.46,10-33.32C885.15,515,878.32,517.24,878.32,517.24Z"/><path class="cls-39" d="M790.72,375.5c.47-10.82-10.42-21.85-22.65-21.82a22.62,22.62,0,1,0,22.58,24.76c1.18-1.16,6.56-5.43,17.38.66.72,5.42,7.2,19.68,22.46,19.64a22.62,22.62,0,1,0-22.68-22.55S798.65,370.59,790.72,375.5Zm-22.53,21.13a20.33,20.33,0,1,1,20.27-20.39A20.36,20.36,0,0,1,768.19,396.63Zm62.3-.18a20.33,20.33,0,1,1,20.27-20.38A20.35,20.35,0,0,1,830.49,396.45Z"/></svg>