<svg id="Layer_1" data-name="Layer 1" xmlns="http://www.w3.org/2000/svg" viewBox="0 0 1500 1500"><defs><style>.cls-1{fill:#fff;}</style></defs><title>down</title><path class="cls-1" d="M750,0C335.79,0,0,335.79,0,750s335.79,750,750,750,750-335.79,750-750S1164.21,0,750,0Zm553.73,648.42L818.22,1133.94a104.28,104.28,0,0,1-147.45,0l-474.5-474.5a104.28,104.28,0,0,1-30.53-73.73h0c0-92.88,112.3-139.4,178-73.72L670.77,839.05a104.26,104.26,0,0,0,147.45,0L1156.29,501c65.67-65.68,178-19.16,178,73.72h0A104.26,104.26,0,0,1,1303.73,648.42Z"/></svg>