<svg id="Layer_1" data-name="Layer 1" xmlns="http://www.w3.org/2000/svg" viewBox="0 0 246.76 351.65"><defs><style>.cls-1{fill:#f1f3f8;}.cls-2{fill:#798cbf;}</style></defs><title>logo</title><path class="cls-1" d="M646.73,508.51c-32.86-31.12-28.77-60.58-13.86-94.79,5.79-13.26,12.2-22.49,25.38-28.81-11.35-9.16-25.29-4.69-32.77-17.48,10.75-4.12,19.95,0,29,.59,4.6.3,9.34,1.07,10.74-4.73,1.72-7.15-3.46-8.46-8.87-9.86-11.12-2.87-23.86-1.11-33.29-10.93,8.83-6.07,17.71-2.21,26.36-2.2,5.67,0,14.7,6.52,15.81-4.8.94-9.72-8.56-7.79-14.49-9.82-9.44-3.23-21.32-.27-28.2-10.54,2.9-9.26,12.9-1.19,17.17-8.09-.33-1.31-.29-3.74-1.47-5.2-3.72-4.64-15.16-4.3-11.08-13.5,2.92-6.6,11.6-5.56,18.15-6.07,76.69-5.91,137,64.41,123.14,143.85-1.58,9-2.2,16.3,2.21,25.28,8.11,16.48.66,33.33-15.3,37.83s-28.82-1.5-33.83-17.18c-5.31-16.64,1.25-30.77,19-33.91,13.82-2.45,16.28-10.55,18-21.14,4.37-26.13-2.29-49.75-18.23-77.37-2.16,21.3-10,35.85-6.4,53.11,2.51,11.87-4.3,20.17-16.35,22.48-11,2.1-19.36-2.89-23.14-13.07-4.17-11.25-.17-20.51,10.46-26.33a38.6,38.6,0,0,0,5.56-64.56c-12.57-10-32.63-15.94-55.49-15.21,22.47,21.27,32.64,44.67,23.51,74.1-3.45,11.14-18.6,19.15-9.87,33.91.17.28-2.69,3.42-4.15,3.42-6.94,0-15.35-.21-14.54,8.92.73,8.33,10.3,6.3,16.3,8.1,4.42,1.33,8.56,2.76,8.83,10.07-8.24,4-16.53-1.54-24.75-1.42-6,.08-13.15-1.11-14,7-.82,7.69,7,5.72,11.31,7.56,10.19,4.32,24-.05,33,14.35-13,3.57-23.31-2.7-33.78-2.28-4.26.17-9.58-1.71-11,4.22-1.64,6.89,3.67,8.06,8.87,10.09,11.29,4.4,25.71.13,34.85,12-5.55,9.85-16.09-.42-22.21,6.88.34,1.45.4,3.68,1.35,5.44,3.69,6.87,19.08,5.31,15.23,15.72-3.41,9.22-15.6,6.48-24.06,6.7C577.49,522.62,521,455.44,532.8,381.4c1.77-11.1,3.32-20.68-2.43-31.88-7.75-15.12-.43-28.3,14.37-34.59,15.14-6.44,28.6-1,35,14.33s1.11,31.24-14.48,34.33c-21.82,4.31-21.78,18.7-22.85,34-1.44,20.43,4.41,38.85,17.38,55.27,4.26-14.22,10.05-26.1,6.58-40.74-3-12.55,2.56-22.16,15.86-25,12-2.54,20.8,3,24.34,14.34,3.61,11.57-1.83,20-12.46,25.43-23.45,12-26.12,46.4-4.21,63.35C604.74,501.76,621.93,508.55,646.73,508.51Zm-92.54-186c-9.38,2-16.36,7.29-16,17.47.39,9.89,6.83,16.5,17.15,16.22s16.41-7,16.23-17S564.55,323.79,554.19,322.53ZM764.28,463.61c-1.94-9.78-7-16.53-17.74-16.39-9.6.12-15.58,6-16.15,15.18-.67,10.45,5.88,17.25,16,17.7S762.38,473.67,764.28,463.61Zm-39.94-68.52c-.32-4.85-2.49-9.25-8.48-10.19-7-1.09-11.65,2.55-12.29,9.19s4,11.15,10.49,11.27C719.54,405.47,723.36,401.75,724.34,395.09ZM586.11,397.3c-6.05.69-9.51,4.11-9.52,10.17s3.31,10.29,9.39,10.21c6.78-.08,11.27-4.21,10.8-11.34C596.39,400.29,592.22,397.39,586.11,397.3ZM647.33,310c-.39-.42-.85-.9-1.31-1.37L644.59,310l1.42,1.39ZM560.81,458.84l.92-1.35-1.39-.21Zm91.36,30.94c-.41-.46-.8-1.25-1.23-1.28s-.94.69-1.41,1.09c.41.46.79,1.25,1.23,1.28S651.7,490.17,652.17,489.78Z" transform="translate(-527.24 -281.94)"/><path class="cls-2" d="M701,632.17l-1.32,1.42-1.43-1.39,1.43-1.4Z" transform="translate(-527.24 -281.94)"/></svg>